<!-- Generated by IcoMoon.io -->
<svg version="1.1" xmlns="http://www.w3.org/2000/svg" width="768" height="768" viewBox="0 0 768 768">
<title></title>
<g id="icomoon-ignore">
</g>
<path fill="none" stroke="#000" stroke-linejoin="miter" stroke-linecap="round" stroke-miterlimit="10" stroke-width="24" d="M636 348c0 39.764-134.315 72-300 72s-300-32.236-300-72c0-39.764 134.315-72 300-72s300 32.236 300 72z"></path>
<path fill="none" stroke="#000" stroke-linejoin="miter" stroke-linecap="round" stroke-miterlimit="10" stroke-width="24" d="M636 348v12c0 185.52-134.28 312-300 312s-300-126.48-300-312v-12"></path>
<path fill="none" stroke="#000" stroke-linejoin="miter" stroke-linecap="round" stroke-miterlimit="10" stroke-width="24" d="M636 408c15.798-14.482 36.8-23.513 59.903-23.999l0.097-0.002c1.359-0.205 2.927-0.323 4.523-0.323 17.563 0 31.8 14.237 31.8 31.8 0 1.596-0.118 3.164-0.344 4.697l0.021-0.173v12c0 59.647-48.353 108-108 108v0s-36 0-48 12"></path>
<path fill="none" stroke="#000" stroke-linejoin="miter" stroke-linecap="butt" stroke-miterlimit="10" stroke-width="24" d="M516 612c51.72 15.36 84 36 84 60 0 46.44-118.2 84-264 84s-264-37.56-264-84c0-24 32.28-44.64 84-60"></path>
<path fill="#000" d="M628.32 446.52l-8.64-22.44c-71.64 27.96-174.96 43.92-283.68 43.92s-212.040-15.96-283.68-43.92l-8.64 22.44 8.16 3-8.16 21c74.16 28.92 180.72 45.48 292.32 45.48s218.16-16.56 292.32-45.48l-8.16-21z"></path>
<path fill="none" stroke="#000" stroke-linejoin="miter" stroke-linecap="round" stroke-miterlimit="10" stroke-width="24" d="M360 12c0 54-48 54-48 108s48 54 48 108"></path>
<path fill="none" stroke="#000" stroke-linejoin="miter" stroke-linecap="round" stroke-miterlimit="10" stroke-width="24" d="M132 60c0 48-48 48-48 96s48 48 48 96"></path>
<path fill="none" stroke="#000" stroke-linejoin="miter" stroke-linecap="round" stroke-miterlimit="10" stroke-width="24" d="M564 60c0 48-48 48-48 96s48 48 48 96"></path>
<path fill="none" stroke="#000" stroke-linejoin="miter" stroke-linecap="round" stroke-miterlimit="10" stroke-width="24" d="M468 48l12-12"></path>
<path fill="none" stroke="#000" stroke-linejoin="miter" stroke-linecap="round" stroke-miterlimit="10" stroke-width="24" d="M432 48l-12-12"></path>
<path fill="none" stroke="#000" stroke-linejoin="miter" stroke-linecap="round" stroke-miterlimit="10" stroke-width="24" d="M432 84l-12 12"></path>
<path fill="none" stroke="#000" stroke-linejoin="miter" stroke-linecap="round" stroke-miterlimit="10" stroke-width="24" d="M468 84l12 12"></path>
<path fill="none" stroke="#000" stroke-linejoin="miter" stroke-linecap="round" stroke-miterlimit="10" stroke-width="24" d="M720 228l12-12"></path>
<path fill="none" stroke="#000" stroke-linejoin="miter" stroke-linecap="round" stroke-miterlimit="10" stroke-width="24" d="M684 228l-12-12"></path>
<path fill="none" stroke="#000" stroke-linejoin="miter" stroke-linecap="round" stroke-miterlimit="10" stroke-width="24" d="M684 264l-12 12"></path>
<path fill="none" stroke="#000" stroke-linejoin="miter" stroke-linecap="round" stroke-miterlimit="10" stroke-width="24" d="M720 264l12 12"></path>
<path fill="none" stroke="#000" stroke-linejoin="miter" stroke-linecap="round" stroke-miterlimit="10" stroke-width="24" d="M228 168l12-12"></path>
<path fill="none" stroke="#000" stroke-linejoin="miter" stroke-linecap="round" stroke-miterlimit="10" stroke-width="24" d="M192 168l-12-12"></path>
<path fill="none" stroke="#000" stroke-linejoin="miter" stroke-linecap="round" stroke-miterlimit="10" stroke-width="24" d="M192 204l-12 12"></path>
<path fill="none" stroke="#000" stroke-linejoin="miter" stroke-linecap="round" stroke-miterlimit="10" stroke-width="24" d="M228 204l12 12"></path>
</svg>
