<!-- Generated by IcoMoon.io -->
<svg version="1.1" xmlns="http://www.w3.org/2000/svg" width="768" height="768" viewBox="0 0 768 768">
<title></title>
<g id="icomoon-ignore">
</g>
<path fill="#000" d="M600 312h-24v-72c0-13.248-10.728-24-24-24h-456c-13.248 0-24 10.752-24 24s10.752 24 24 24h432v288c0 66.168-53.832 120-120 120h-168c-66.168 0-120-53.832-120-120v-216c0-13.248-10.752-24-24-24s-24 10.752-24 24v216c0 92.616 75.36 168 168 168h168c92.616 0 168-75.384 168-168v-24h24c52.944 0 96-43.056 96-96v-24c0-52.944-43.056-96-96-96zM648 432c0 26.472-21.528 48-48 48h-24v-120h24c26.472 0 48 21.528 48 48v24z"></path>
<path fill="#000" d="M216 192c13.248 0 24-10.752 24-24v-48c0-13.248-10.752-24-24-24s-24 10.752-24 24v48c0 13.248 10.752 24 24 24z"></path>
<path fill="#000" d="M312 192c13.248 0 24-10.752 24-24v-96c0-13.248-10.752-24-24-24s-24 10.752-24 24v96c0 13.248 10.752 24 24 24z"></path>
<path fill="#000" d="M408 192c13.272 0 24-10.752 24-24v-48c0-13.248-10.728-24-24-24-13.248 0-24 10.752-24 24v48c0 13.248 10.752 24 24 24z"></path>
</svg>
