<!-- Generated by IcoMoon.io -->
<svg version="1.1" xmlns="http://www.w3.org/2000/svg" width="768" height="768" viewBox="0 0 768 768">
<title></title>
<g id="icomoon-ignore">
</g>
<path fill="#000" d="M719.91 318.84c-10.609-1.062-20.338-3.74-29.312-7.798l0.587 0.238c-3.090-2.040-13.32-10.035-4.53-22.29 12.067-20.827 5.109-54.312-34.344-62.331-8.029-26.289-19.938-49.154-35.267-69.272l0.389 0.532c-21.325-27.964-49.41-50.021-83.475-65.557-40.373-18.413-89.501-27.748-146.020-27.748s-105.647 9.336-146.019 27.749c-34.065 15.536-62.15 37.593-83.475 65.557-14.66 19.208-26.409 41.596-34.040 65.811l-0.419 1.542c-47.969 4.153-57.028 41.295-44.020 63.717 10.245 14.265-5.37 22.815-5.385 22.815-8.053 3.523-17.392 6.013-27.174 7.003l-0.396 0.032c-43.685 4.328-48.754 82.892 29.339 98.592v42.483c0 15.84 11.805 30.81 32.775 44.055 0.045 25.185 1.155 74.025 35.115 117.825 42.855 55.245 123.33 83.25 239.22 83.25s196.365-28.005 239.205-83.25c33.105-42.675 35.010-90.12 35.115-115.83 22.995-13.725 36.030-29.4 36.030-46.050v-43.188c74.686-17.2 69.169-93.62 26.1-97.887zM387.938 84.114c247.681 0 254.831 183.145 254.831 204.030 0 17.352-26.43 36.113-70.698 50.188-49.044 15.592-114.437 24.178-184.134 24.178s-135.090-8.587-184.133-24.178c-44.269-14.075-70.699-32.836-70.699-50.188 0-20.885 7.15-204.030 254.831-204.030zM549.599 451.957c-5.929 8.946-11.798 19.342-16.938 30.151l-0.67 1.567c-1.665 3.39-3.225 6.69-4.71 9.81-1.53 3.21-2.94 6.18-4.215 8.79l-19.935 40.515c-2.437 5.028-7.317 8.533-13.055 8.981l-0.055 0.004c-0.439 0.043-0.948 0.067-1.463 0.067-5.339 0-10.070-2.602-12.995-6.606l-0.031-0.046-15-20.55c-3.915-5.385-8.58-12.96-13.5-20.985q-2.632-4.298-5.355-8.67c-10.583-17.024-22.143-34.335-35.156-45.144 14.639-2.611 27.623-8.256 38.783-16.278l-0.281 0.192c4.74-3.403 10.659-5.441 17.054-5.441 6.664 0 12.81 2.213 17.745 5.945l-0.074-0.054c11.055 8.115 29.22 16.020 58.59 17.61 3.959 0.21 7.703 0.246 11.264 0.142zM97.291 419.945c2.546 0.114 5.533 0.179 8.533 0.179 10.069 0 19.969-0.732 29.646-2.146l-1.1 0.132c1.267-0.191 2.728-0.3 4.214-0.3 9.226 0 17.471 4.201 22.925 10.796l0.040 0.050c9.195 11.355 28.41 25.215 67.035 23.16 29.535-1.59 47.715-9.585 58.755-17.73 4.947-3.791 11.222-6.073 18.031-6.073 6.332 0 12.203 1.975 17.031 5.343l-0.097-0.064c4.343 3.103 9.287 6.001 14.487 8.444l0.585 0.247-0.057 0.159 2.055 0.738c3.415 1.549 7.619 3.097 11.944 4.367l0.721 0.181 32.861 11.799c11.235 4.035 23.595 20.325 34.395 36.9q-16.83 0.675-34.215 0.675c-86.775 0-164.805-12.57-218.835-32.565q-12.42-4.613-23.085-9.705c-21.449-10.278-37.236-21.974-45.869-34.586zM364.913 557.867l-11.378 6.651c-19.82 8.295-34.402 24.523-47.206 40.841l-19.232 24.461c-3.018 3.81-7.645 6.232-12.837 6.232-6.057 0-11.345-3.297-14.166-8.194l-0.042-0.079-23.951-42.245c-1.457-2.571-3.13-5.7-4.902-9.014-6.382-11.938-13.965-26.097-22.645-36.080 44.868 9.959 98.431 16.236 156.36 17.423zM607.26 609.84c-38.955 50.235-114.255 75.705-223.8 75.705s-184.845-25.47-223.8-75.705c-25.785-33.24-30.15-70.725-30.885-95.175 7.266 3.43 15.212 6.703 23.747 9.808l36.458 24.047c8.558 6.406 18.457 24.92 25.021 37.198 1.83 3.422 3.558 6.654 5.135 9.436l23.956 42.253c5.842 10.165 16.273 17.12 28.392 18.042l0.121 0.008q1.347 0.1 2.683 0.1c0.004 0 0.010 0 0.016 0 11.383 0 21.522-5.321 28.067-13.612l0.058-0.076 19.235-24.465c11.293-14.393 23.942-28.608 39.889-35.1 0.488-0.2 0.898-0.406 1.289-0.638l-0.045 0.025 40.698-23.791c18.922-0.355 37.391-1.25 55.25-2.646l1.035 1.425c6.505 8.923 16.921 14.655 28.677 14.655 0.028 0 0.055 0 0.083 0h-0.004c1.050 0 2.115-0.045 3.18-0.135 12.747-1.087 23.474-8.782 28.828-19.608l0.092-0.207 1.74-3.525c46.41-7.335 86.19-18.285 115.71-31.68-0.869 24.466-5.564 61.096-30.824 93.661zM625.155 455.4q-10.665 4.995-23.085 9.51c-11.896 4.497-27.115 9.126-42.669 12.895l-2.886 0.59c6-11.205 12.63-21.795 18.93-26.97l7.576-6.221c8.925-3.769 16.415-9.404 22.257-16.453l0.077-0.096c5.502-6.643 13.752-10.844 22.984-10.844 1.486 0 2.946 0.109 4.373 0.319l-0.162-0.019c8.504 1.287 18.318 2.022 28.303 2.022 4.273 0 8.513-0.134 12.719-0.4l-0.575 0.029c-8.846 13.043-25.344 25.112-47.842 35.639z"></path>
<path fill="#000" d="M289.585 193.948c6.168 3.562 12.952 6.135 17.949 6.135 2.937 0 5.257-0.89 6.47-2.99 3.276-5.675-5.138-13.921-14.932-19.575s-21.143-8.82-24.418-3.144c-1.109 1.919-1.476 5.274 3.070 10.36 3.401 3.589 7.308 6.652 11.616 9.087l0.247 0.128z"></path>
<path fill="#000" d="M517.407 218.132c4.005 2.439 8.644 4.387 13.573 5.595l0.339 0.071c1.214 0.28 2.612 0.449 4.047 0.466h0.012c3.799 0 5.598-1.515 6.447-2.987 1.108-1.919 1.476-5.274-3.070-10.36-6.873-7.035-15.6-12.23-25.391-14.796l-0.383-0.085c-6.679-1.397-9.398 0.602-10.506 2.521s-1.476 5.275 3.070 10.359c3.401 3.59 7.307 6.653 11.616 9.088l0.246 0.128z"></path>
<path fill="#000" d="M427.958 192.647c5.248 0 12.435-5.809 18.15-12.747 7.189-8.729 12.18-19.401 7.121-23.568s-14.577 2.776-21.767 11.505v0c-7.189 8.729-12.178 19.402-7.121 23.569 0.944 0.774 2.162 1.243 3.49 1.243 0.044 0 0.089-0.001 0.133-0.002h-0.007z"></path>
<path fill="#000" d="M375.799 241.755c-1.117 1.935-1.485 5.319 3.109 10.457 6.966 7.129 15.81 12.394 25.733 14.995l0.389 0.086c1.228 0.283 2.644 0.454 4.096 0.472h0.013c3.834 0 5.646-1.527 6.502-3.009 1.117-1.935 1.485-5.32-3.109-10.458-3.447-3.637-7.405-6.741-11.771-9.209l-0.25-0.13c-9.917-5.724-21.402-8.937-24.71-3.204z"></path>
<path fill="#000" d="M259 267.766c1.466-0.018 2.881-0.189 4.244-0.497l-0.136 0.025c5.339-1.297 10.040-3.271 14.322-5.868l-0.223 0.125c9.915-5.724 18.439-14.066 15.13-19.797s-14.794-2.522-24.71 3.204-18.439 14.065-15.13 19.798c0.856 1.483 2.668 3.009 6.502 3.009z"></path>
<path fill="#000" d="M347.764 144.159c5.057 0 11.933-2.61 18.183-6.219 9.915-5.726 18.439-14.067 15.13-19.798-1.115-1.935-3.863-3.941-10.611-2.537-10.311 2.687-19.155 7.952-26.111 15.071l-0.011 0.010c-4.593 5.139-4.226 8.523-3.109 10.457 1.223 2.118 3.562 3.015 6.526 3.015z"></path>
</svg>
