<!-- Generated by IcoMoon.io -->
<svg version="1.1" xmlns="http://www.w3.org/2000/svg" width="768" height="768" viewBox="0 0 768 768">
<title></title>
<g id="icomoon-ignore">
</g>
<path fill="#000" d="M660 192h-144v-180c0-6.628-5.372-12-12-12v0h-48c-6.628 0-12 5.372-12 12v0 180h-144c-6.628 0-12 5.372-12 12v0 48c0 6.628 5.372 12 12 12v0h12.888l6.504 84.912c0.575 6.142 5.706 10.912 11.951 10.912 6.628 0 12-5.372 12-12 0-0.26-0.008-0.516-0.025-0.772l0.002 0.035-6.36-83.088h286.092l-9.6 124.356c-7.084-2.668-15.273-4.213-23.822-4.213-5.952 0-11.729 0.749-17.243 2.156l0.481-0.104c-0.708 0.168-1.404 0.384-2.112 0.576-2.827 0.804-5.136 1.621-7.381 2.56l0.433-0.161c-0.828 0.324-1.656 0.624-2.472 0.984-3.332 1.447-6.118 2.911-8.784 4.552l0.3-0.172c-10.372-6.549-22.994-10.436-36.524-10.436-5.344 0-10.546 0.606-15.541 1.753l0.465-0.090c-5.524 1.15-9.616 5.978-9.616 11.761 0 6.628 5.372 12 12 12 1.054 0 2.077-0.136 3.051-0.392l-0.083 0.019c2.887-0.648 6.202-1.020 9.604-1.020 11.083 0 21.245 3.942 29.16 10.501l-0.076-0.061c2.035 1.64 4.651 2.632 7.5 2.632s5.465-0.992 7.523-2.65l-0.023 0.018c1.828-1.471 3.871-2.863 6.022-4.091l0.23-0.121c0.684-0.396 1.404-0.684 2.1-1.032 1.212-0.655 2.729-1.36 4.286-1.986l0.322-0.114c0.756-0.288 1.536-0.492 2.292-0.732 1.247-0.435 2.856-0.882 4.497-1.24l0.303-0.055c0.708-0.144 1.416-0.228 2.124-0.348 1.509-0.253 3.312-0.438 5.143-0.513l0.089-0.003c0.588 0 1.2 0 1.788 0 1.985 0 3.938 0.13 5.853 0.384l-0.225-0.024c0.492 0 0.984 0.108 1.464 0.192 2.267 0.372 4.221 0.835 6.122 1.418l-0.326-0.086 1.284 0.372c2.174 0.743 3.971 1.501 5.704 2.365l-0.268-0.121c0.492 0.24 1.008 0.432 1.488 0.684 0.3 0.156 0.564 0.372 0.852 0.528l-25.176 329.952h-82.26c-6.628 0-12 5.372-12 12s5.372 12 12 12v0h93.384c0.010 0 0.022 0 0.035 0 6.307 0 11.476-4.865 11.962-11.047l0.003-0.041 25.308-330.336 1.296-18 11.124-144.576h12.888c6.628 0 12-5.372 12-12v0-48c0-6.628-5.372-12-12-12v0zM468 24h24v168h-24zM648 240h-336v-24h336z"></path>
<path fill="#000" d="M452.58 418.62c-48.457-21.793-105.039-34.488-164.586-34.488s-116.128 12.695-167.186 35.527l2.6-1.039c-16.041 6.601-27.175 22.012-27.408 40.051v1.325c0.301 16.906 10.179 31.435 24.427 38.418l0.257 0.114c-0.415 1.637-0.663 3.52-0.684 5.459v12.014c0.009 5.442 1.844 10.453 4.925 14.456l-0.041-0.055c-0.653 1.444-1.219 3.145-1.611 4.909l-0.033 0.178c-1.652 5.863-2.808 12.692-3.227 19.721l-0.013 0.271c-0.001 0.102-0.002 0.222-0.002 0.343 0 5.577 1.239 10.865 3.457 15.603l-0.095-0.226c-2.114 4.497-3.346 9.766-3.346 15.324 0 8.772 3.073 16.826 8.201 23.144l-0.053-0.068c-5.032 5.33-8.125 12.538-8.125 20.467 0 7.637 2.868 14.603 7.586 19.881l-0.025-0.029c-4.706 6.038-7.558 13.723-7.596 22.071v0.009c0.022 5.377 1.232 10.465 3.38 15.025l-0.092-0.217c-16.067 6.112-27.275 21.385-27.275 39.276 0 23.149 18.766 41.916 41.916 41.916 0.025 0 0.050 0 0.076 0h299.996c0.021 0 0.046 0 0.071 0 23.149 0 41.916-18.766 41.916-41.916 0-17.891-11.21-33.164-26.988-39.18l-0.288-0.096c2.056-4.342 3.266-9.431 3.288-14.801v-0.007c-0.027-8.354-2.867-16.038-7.622-22.163l0.061 0.082c4.693-5.249 7.561-12.216 7.561-19.852 0-7.93-3.093-15.137-8.138-20.482l0.014 0.014c5.074-6.25 8.147-14.305 8.147-23.076 0-5.557-1.234-10.827-3.442-15.55l0.094 0.226c2.101-4.492 3.326-9.753 3.326-15.301 0-0.148-0.001-0.295-0.002-0.442v0.023c-0.433-7.361-1.589-14.249-3.405-20.864l0.165 0.704c-0.425-1.91-0.982-3.577-1.688-5.164l0.068 0.172c3.017-3.931 4.84-8.914 4.86-14.323v-12.004c-0.021-1.951-0.269-3.836-0.719-5.639l0.035 0.166c14.505-7.097 24.383-21.626 24.683-38.492l0.001-0.040v-1.296c-0.231-18.072-11.372-33.484-27.128-39.973l-0.292-0.107zM432 516h-288v-12h288zM432 555.48c0.035 0.308 0.055 0.666 0.055 1.028 0 3.034-1.422 5.736-3.635 7.476l-0.020 0.016c-1.593-1.119-2.726-2.801-3.112-4.752l-0.008-0.048c-1.354-5.146-5.965-8.88-11.449-8.88-0.025 0-0.050 0-0.075 0h-1.916c-0.016 0-0.035 0-0.053 0-5.518 0-10.166 3.724-11.567 8.796l-0.020 0.084c-0.32 1.998-1.422 3.692-2.977 4.785l-0.023 0.015c-1.578-1.108-2.68-2.802-2.995-4.759l-0.005-0.041c-1.422-5.156-6.070-8.88-11.587-8.88-0.019 0-0.037 0-0.056 0h-1.917c-0.021 0-0.046 0-0.071 0-5.483 0-10.095 3.734-11.43 8.798l-0.019 0.082c-0.394 1.999-1.527 3.681-3.096 4.784l-0.024 0.016c-1.593-1.119-2.726-2.801-3.112-4.752l-0.008-0.048c-1.354-5.146-5.966-8.88-11.449-8.88-0.025 0-0.050 0-0.075 0h-1.916c-0.016 0-0.034 0-0.053 0-5.518 0-10.165 3.724-11.567 8.796l-0.020 0.084c-0.32 1.998-1.422 3.691-2.977 4.785l-0.023 0.015c-1.578-1.109-2.681-2.802-2.995-4.759l-0.005-0.041c-1.422-5.156-6.070-8.88-11.587-8.88-0.019 0-0.037 0-0.056 0h-1.917c-0.021 0-0.046 0-0.071 0-5.483 0-10.095 3.734-11.43 8.798l-0.019 0.083c-0.394 1.999-1.527 3.681-3.096 4.784l-0.024 0.016c-1.578-1.109-2.68-2.802-2.995-4.759l-0.005-0.041c-1.422-5.156-6.070-8.88-11.587-8.88-0.019 0-0.037 0-0.055 0h-1.917c-0.016 0-0.034 0-0.053 0-5.518 0-10.165 3.724-11.567 8.796l-0.020 0.084c-0.319 1.998-1.422 3.692-2.977 4.785l-0.023 0.015c-1.593-1.119-2.726-2.801-3.112-4.752l-0.008-0.048c-1.354-5.146-5.966-8.88-11.449-8.88-0.025 0-0.050 0-0.075 0h-1.916c-0.016 0-0.035 0-0.053 0-5.518 0-10.165 3.724-11.567 8.796l-0.020 0.084c-0.32 1.998-1.422 3.692-2.977 4.785l-0.023 0.015c-1.578-1.108-2.681-2.802-2.995-4.759l-0.005-0.041c-1.422-5.156-6.070-8.88-11.588-8.88-0.019 0-0.037 0-0.056 0h-1.917c-0.021 0-0.047 0-0.071 0-5.483 0-10.095 3.734-11.43 8.798l-0.019 0.082c-0.394 1.999-1.527 3.681-3.096 4.784l-0.024 0.016c-1.593-1.119-2.726-2.801-3.112-4.752l-0.008-0.048c-1.354-5.146-5.966-8.88-11.449-8.88-0.025 0-0.050 0-0.075 0h-1.916c-0.016 0-0.035 0-0.052 0-5.518 0-10.166 3.724-11.567 8.796l-0.020 0.084c-0.319 1.998-1.422 3.692-2.977 4.785l-0.023 0.015c-1.578-1.109-2.681-2.802-2.995-4.759l-0.005-0.041c-1.422-5.156-6.070-8.88-11.588-8.88-0.019 0-0.037 0-0.055 0h-1.917c-0.021 0-0.047 0-0.071 0-5.483 0-10.095 3.734-11.43 8.798l-0.019 0.082c-0.394 1.999-1.527 3.681-3.096 4.784l-0.024 0.016c-2.234-1.756-3.655-4.457-3.655-7.492 0-0.362 0.020-0.72 0.060-1.072l-0.004 0.043c0.058-1.395 0.23-2.713 0.508-3.992l-0.028 0.152c0.36-2.28 0.96-5.76 2.16-11.16 0-0.12 0.12-0.36 0.12-0.48h282.48c0 0.12 0.12 0.36 0.12 0.48 1.2 5.4 1.8 8.88 2.16 11.16 0.25 1.127 0.422 2.445 0.479 3.793l0.001 0.047zM426 624c3.313 0 6 2.687 6 6s-2.687 6-6 6v0h-54c-3.314 0.025-6.315 1.348-8.524 3.483l0.004-0.003-15.48 15.6-15.48-15.6c-2.205-2.132-5.206-3.455-8.515-3.48h-174.005c-3.314 0-6-2.687-6-6s2.686-6 6-6v0h276zM420 684h-264c-6.628 0-12-5.372-12-12s5.372-12 12-12v0h163.080l20.4 20.52c2.193 2.153 5.201 3.481 8.52 3.481s6.327-1.328 8.522-3.482l-0.002 0.002 20.4-20.52h43.080c6.628 0 12 5.372 12 12s-5.372 12-12 12v0zM418.68 600h-261.36c-0.011 0-0.023 0-0.035 0-6.953 0-12.65-5.375-13.163-12.196l-0.003-0.044c1.022 0.131 2.227 0.217 3.449 0.239l0.031 0.001c5.948-0.022 11.395-2.148 15.64-5.673l-0.040 0.033c4.247 3.371 9.685 5.409 15.6 5.409s11.353-2.038 15.652-5.449l-0.052 0.040c4.247 3.371 9.685 5.409 15.6 5.409s11.353-2.038 15.652-5.449l-0.052 0.040c4.247 3.371 9.685 5.409 15.6 5.409s11.353-2.038 15.652-5.449l-0.052 0.040c4.247 3.371 9.685 5.409 15.6 5.409s11.353-2.038 15.652-5.449l-0.052 0.040c4.247 3.371 9.685 5.409 15.6 5.409s11.353-2.038 15.652-5.449l-0.052 0.040c4.247 3.371 9.685 5.409 15.6 5.409s11.353-2.038 15.652-5.449l-0.052 0.040c4.247 3.371 9.685 5.409 15.6 5.409s11.353-2.038 15.652-5.449l-0.052 0.040c4.247 3.371 9.685 5.409 15.6 5.409s11.353-2.038 15.652-5.449l-0.052 0.040c4.204 3.492 9.652 5.618 15.595 5.64h0.005c1.252-0.023 2.459-0.109 3.646-0.256l-0.166 0.016c-0.516 6.866-6.213 12.24-13.165 12.24-0.012 0-0.025 0-0.037 0h0.002zM438 744h-300c-9.941 0-18-8.059-18-18s8.059-18 18-18v0h300c9.941 0 18 8.059 18 18s-8.059 18-18 18v0zM456 459.996c-0.839 11.24-10.163 20.041-21.544 20.041-0.442 0-0.88-0.014-1.316-0.040l0.060 0.003h-290.4c-0.376 0.023-0.815 0.037-1.256 0.037-11.381 0-20.705-8.801-21.539-19.969l-0.004-0.072v-1.296c0.236-8.189 5.388-15.115 12.597-17.954l0.135-0.046c45.745-20.263 99.074-32.194 155.152-32.507l0.116-0.001c56.197 0.331 109.518 12.277 157.801 33.556l-2.545-1c7.335 2.874 12.485 9.781 12.743 17.921l0.001 0.031z"></path>
</svg>
