<!-- Generated by IcoMoon.io -->
<svg version="1.1" xmlns="http://www.w3.org/2000/svg" width="768" height="768" viewBox="0 0 768 768">
<title></title>
<g id="icomoon-ignore">
</g>
<path fill="#000" d="M622.227 424.16c-3.718-3.102-7.033-6.43-10.023-10.037l-0.102-0.127 12.804-7.392c5.802-3.395 9.638-9.596 9.638-16.693s-3.836-13.298-9.546-16.644l-0.091-0.050-9.711-5.605c12.295-17.46 19.117-36.592 19.117-56.652 0-104.070-112.303-188.74-250.347-188.74s-250.35 84.669-250.35 188.74c0 20.073 6.829 39.217 19.14 56.686l-9.648 5.571c-5.802 3.394-9.637 9.595-9.637 16.691s3.836 13.297 9.546 16.643l0.091 0.049 12.746 7.359c-3.095 3.743-6.416 7.076-10.017 10.085l-0.121 0.098c-8.36 7.414-17.837 15.815-17.837 27.765 0 11.945 9.473 20.343 17.829 27.75 3.033 2.609 5.791 5.264 8.394 8.065l0.059 0.064c2.037 34.002 9.332 61.186 32.341 86.365 38.373 43.469 114.052 70.471 197.507 70.471 83.844 0 159.66-27.171 197.914-70.927 22.717-25.119 29.933-52.192 31.946-86.002 2.632-2.819 5.356-5.437 8.215-7.903l0.135-0.114c8.363-7.411 17.84-15.815 17.84-27.769-0.002-11.942-9.475-20.339-17.831-27.746zM148.913 310.96c0-95.636 105.442-173.44 235.051-173.44 129.605 0 235.047 77.804 235.047 173.44 0 73.142-105.442 132.646-235.047 132.646-129.609 0-235.051-59.504-235.051-132.646zM150.755 393.352c-1.196-0.699-1.988-1.978-1.988-3.44s0.791-2.741 1.968-3.43l0.019-0.010 11.658-6.732c41.972 47.023 125.507 79.168 221.551 79.168 96.065 0 179.614-32.159 221.575-79.198l11.716 6.763c1.196 0.699 1.988 1.978 1.988 3.44s-0.791 2.741-1.968 3.43l-0.019 0.010-219.728 126.86c-3.879 2.274-8.543 3.616-13.52 3.616s-9.641-1.342-13.649-3.686l0.128 0.069zM570.485 563.531c-0.116 0.127-0.232 0.254-0.351 0.381l-0.023 0.026c-0.112 0.127-0.221 0.254-0.325 0.385-35.639 40.114-106.681 64.999-185.782 64.999-79.2 0-150.486-25.027-186.125-65.41-5.066-5.514-9.587-11.674-13.39-18.298l-0.265-0.5c4.558 0.811 9.822 1.289 15.191 1.32h0.028c7.239 0.235 14.721 0.481 19.383 3.082 3.746 2.092 7.396 7.926 10.926 13.571 5.338 8.531 11.389 18.202 21.534 21.878 9.118 3.302 18.912 0.254 28.385-2.697 6.955-2.171 14.157-4.419 19.196-3.287 4.397 0.971 9.638 5.809 14.706 10.485 7.18 6.626 15.319 14.138 25.598 15.217 9.697 1.013 18.497-4.168 27.029-9.185 6.249-3.672 12.712-7.47 17.762-7.47 5.054 0 11.52 3.799 17.773 7.475 7.8 4.583 15.841 9.308 24.563 9.308 0.001 0 0.002 0 0.004 0 0.869 0 1.726-0.046 2.57-0.136l-0.105 0.009c10.28-1.080 18.419-8.591 25.602-15.217 5.069-4.68 10.31-9.518 14.714-10.489 5.039-1.117 12.233 1.12 19.185 3.287 9.473 2.955 19.27 6.003 28.378 2.697 10.142-3.675 16.189-13.342 21.526-21.875 3.527-5.64 7.176-11.475 10.915-13.559 4.662-2.603 12.144-2.846 19.379-3.082 5.441-0.025 10.749-0.514 15.91-1.428l-0.561 0.082c-3.987 6.982-8.402 13.021-13.405 18.511l0.073-0.081zM612.067 468.23c-5.681 5.036-11.554 10.238-15.065 16.724-3.437 6.35-4.117 14.217-4.777 21.822-0.728 8.378-1.479 17.044-5.875 20.996-3.22 2.891-10.926 3.142-18.378 3.384-8.64 0.281-18.43 0.598-26.338 5.005-7.172 4.005-11.879 11.531-16.432 18.812-4.221 6.746-8.584 13.724-13.765 15.602-4.27 1.535-11.561-0.728-18.617-2.921-8.86-2.76-18.030-5.595-27.040-3.62-8.435 1.867-15.222 8.128-21.785 14.187-5.696 5.259-11.59 10.695-16.824 11.243-4.673 0.5-11.288-3.399-17.683-7.157-8.016-4.71-16.305-9.581-25.524-9.581-9.215 0-17.5 4.871-25.517 9.581-6.391 3.757-13.022 7.65-17.675 7.157-5.233-0.549-11.124-5.984-16.82-11.24-6.559-6.058-13.346-12.32-21.777-14.187-9.043-1.98-18.188 0.863-27.047 3.62-7.060 2.197-14.355 4.453-18.629 2.921-5.185-1.879-9.551-8.861-13.772-15.61-4.557-7.28-9.267-14.807-16.443-18.812-7.904-4.411-17.698-4.732-26.338-5.017-7.455-0.243-15.165-0.497-18.386-3.388-4.4-3.956-5.151-12.622-5.875-21-0.657-7.605-1.334-15.472-4.77-21.822-3.508-6.485-9.379-11.688-15.061-16.724-6.234-5.524-12.678-11.239-12.678-16.301 0-5.069 6.451-10.788 12.685-16.316 1.706-1.513 3.395-3.064 5.050-4.645 11.178 72.941 106.937 130.111 223.052 130.111 116.101 0 211.855-57.157 223.053-130.084 1.663 1.575 3.358 3.126 5.061 4.636 6.235 5.524 12.678 11.236 12.678 16.298 0 5.069-6.451 10.791-12.688 16.323z"></path>
<path fill="#000" d="M327.187 271.545c1.385 1.385 3.296 2.24 5.409 2.24 4.225 0 7.649-3.424 7.649-7.649 0-2.112-0.856-4.024-2.24-5.409v0l-15.128-15.125c-1.382-1.375-3.289-2.225-5.392-2.225-4.225 0-7.649 3.424-7.649 7.649 0 2.104 0.85 4.010 2.225 5.393v0z"></path>
<path fill="#000" d="M327.187 194.305c1.382 1.375 3.289 2.225 5.392 2.225 4.225 0 7.649-3.424 7.649-7.649 0-2.105-0.85-4.010-2.225-5.393v0l-15.128-15.128c-1.385-1.385-3.296-2.24-5.409-2.24-4.225 0-7.649 3.424-7.649 7.649 0 2.112 0.857 4.024 2.24 5.409v0z"></path>
<path fill="#000" d="M445.138 271.545c1.385 1.385 3.296 2.24 5.409 2.24 4.225 0 7.649-3.424 7.649-7.649 0-2.112-0.857-4.024-2.24-5.409v0l-15.125-15.125c-1.385-1.385-3.296-2.24-5.409-2.24-4.225 0-7.649 3.424-7.649 7.649 0 2.112 0.857 4.024 2.24 5.409v0z"></path>
<path fill="#000" d="M445.138 194.305c1.386 1.394 3.304 2.257 5.425 2.257 4.225 0 7.649-3.424 7.649-7.649 0-2.12-0.862-4.040-2.256-5.425v0l-15.125-15.128c-1.385-1.385-3.296-2.24-5.409-2.24-4.225 0-7.649 3.425-7.649 7.649 0 2.112 0.857 4.025 2.24 5.409v0z"></path>
<path fill="#000" d="M376.4 235.167l0.022-0.004 0.022 0.004c0.003 0 0.006 0 0.009 0 2.11 0 4.019-0.856 5.399-2.241v0l15.124-15.125c1.365-1.383 2.208-3.284 2.208-5.382 0-4.232-3.431-7.664-7.663-7.664-2.108 0-4.018 0.851-5.403 2.229v0l-15.128 15.125c-1.384 1.385-2.24 3.296-2.24 5.409 0 4.225 3.425 7.649 7.649 7.65v0z"></path>
<path fill="#000" d="M258.359 235.167c0.003 0 0.006 0 0.009 0 2.11 0 4.019-0.856 5.399-2.241v0l15.125-15.125c1.385-1.385 2.24-3.296 2.24-5.409 0-4.225-3.424-7.649-7.649-7.649-2.112 0-4.024 0.856-5.409 2.24v0l-15.125 15.125c-1.384 1.385-2.24 3.296-2.24 5.409 0 4.225 3.424 7.649 7.649 7.65v0z"></path>
<path fill="#000" d="M494.396 235.167c0.003 0 0.006 0 0.009 0 2.11 0 4.019-0.856 5.399-2.241v0l15.128-15.125c1.385-1.385 2.24-3.296 2.24-5.409 0-4.225-3.425-7.649-7.649-7.649-2.112 0-4.024 0.856-5.409 2.24v0l-15.128 15.125c-1.384 1.385-2.24 3.296-2.24 5.409 0 4.225 3.424 7.649 7.648 7.65v0z"></path>
</svg>
