<!-- Generated by IcoMoon.io -->
<svg version="1.1" xmlns="http://www.w3.org/2000/svg" width="768" height="768" viewBox="0 0 768 768">
<title></title>
<g id="icomoon-ignore">
</g>
<path fill="#cb9963" d="M752.166 431.786c0 115.702-165.030 116.39-368.6 116.39-203.58 0-368.61-0.689-368.61-116.39s165.030-212.819 368.61-212.819c203.57 0 368.6 97.117 368.6 212.819z"></path>
<path fill="#010202" opacity="0.3" d="M653.486 287.637c24.805 28.571 38.839 60.624 38.839 94.274 0 115.692-165.030 116.381-368.6 116.381-124.007 0-233.621-0.299-300.437-26.656 35.767 75.977 183.442 76.536 360.282 76.536 203.57 0 368.6-0.688 368.6-116.38 0-55.108-37.483-105.965-98.683-144.154z"></path>
<path fill="#2e2e30" d="M383.562 533.209c-220.037 0-353.639-6.833-353.639-101.426 0-61.682 53.621-117.817 135.607-154.409-12.777 19.643-22.162 45.062-20.497 77.045 0.419 7.99 7.021 14.186 14.931 14.186 0.26 0 0.529 0 0.788-0.020 8.249-0.429 14.592-7.472 14.163-15.722-3.281-63.019 49.441-94.253 60.024-99.88 40.395-10.814 84.7-17.448 131.049-18.795-20.457 22.147-41.352 59.347-41.243 119.473 0.010 8.26 6.703 14.944 14.961 14.944h0.020c8.269-0.010 14.951-6.724 14.941-14.984-0.139-83.918 46.599-112.949 58.328-118.914 55.416 2.693 107.669 12.869 153.38 28.711-18.353 20.022-36.635 48.134-34.4 91.001 0.419 7.99 7.021 14.186 14.931 14.186 0.26 0 0.529 0 0.788-0.020 8.249-0.429 14.592-7.462 14.163-15.722-1.975-37.79 16.238-59.547 34.79-77.684 84.779 36.532 140.554 93.685 140.554 156.604 0 94.592-133.602 101.426-353.639 101.426zM410.811 204.638c-0.209-0.010-0.419-0.030-0.628-0.030-8.807-0.359-17.664-0.608-26.621-0.608-211.499 0-383.561 102.184-383.561 227.783 0 131.354 177.747 131.354 383.561 131.354s383.561 0 383.561-131.354c0-120.151-157.5-218.804-356.312-227.144z"></path>
</svg>
